<?xml version="1.0" encoding="utf-8"?>
<svg version="1.1" id="bjae" xmlns="http://www.w3.org/2000/svg" xmlns:xlink="http://www.w3.org/1999/xlink" x="0px" y="0px" viewBox="0 0 88.1 50" style="enable-background:new 0 0 88.1 50;" xml:space="preserve" width="88.1" height="50" >
<style type="text/css">
	.st0{fill:#FFFFFF;}
</style>
<path class="st0" d="M8.8,16.6c1.7,0,3.3,0.1,4.9,0c1.8-0.1,3.5-0.7,4.9-1.9c1.7-1.4,2.3-3.3,2.4-5.4c0-1.6-0.3-3.2-1.1-4.5
	c-1.3-2.1-3.3-3-5.7-3.2c-1.8-0.2-3.5-0.1-5.3-0.1c0,0-0.1,0-0.1,0.1C8.8,6.5,8.8,11.5,8.8,16.6 M8.8,18.1c0,0.7,0,1.4,0,2.1
	c0,3.6,0,7.3,0.2,10.9c0.1,2.4,1,3.7,3.7,3.6c1,0,2,0,3,0c1.7-0.1,3.3-0.6,4.6-1.7c1.5-1.4,2.2-3.2,2.3-5.2c0.2-2.8-0.6-5.3-2.7-7.2
	c-1.5-1.4-3.4-2.1-5.4-2.4c-1.8-0.2-3.6-0.1-5.4-0.2C9,18,8.9,18.1,8.8,18.1z M0,36c0-0.2,0-0.4,0-0.6c0-0.1,0-0.3,0-0.4
	c0.6-0.1,1.2-0.2,1.7-0.3c0.8-0.2,1.3-0.7,1.7-1.4c0.5-1.1,0.7-2.3,0.7-3.5c0-7.9,0-15.8,0-23.7c0-1-0.2-2.1-0.5-3
	c-0.3-1.3-1.4-2-2.7-2.1c-0.3,0-0.6,0-0.9,0C0,0.7,0,0.4,0,0c0.2,0,0.3,0,0.5,0c4.6,0,9.2,0,13.8,0c2.1,0,4.3,0.3,6.3,1.2
	c2.3,1,4.1,2.5,5.1,4.9c0.5,1.4,0.6,2.8,0.3,4.3c-0.4,2.2-1.6,3.8-3.5,4.9c-1.1,0.6-2.2,1.1-3.3,1.6c-0.1,0-0.2,0.1-0.3,0.2
	c0.7,0.2,1.4,0.4,2,0.6c2.8,1,5.1,2.7,6.4,5.4c1.3,2.6,1.4,5.3,0.1,7.9c-0.9,1.8-2.5,3-4.4,3.8c-1.9,0.8-3.9,1.2-6,1.2
	c-5.5,0-11,0-16.5,0C0.3,36,0.2,36,0,36z"/>
<path class="st0" d="M56.3,19.2c3.4,0,6.7,0,10.2,0c-1.7-5.1-3.3-10.2-5-15.3c-0.1,0-0.1,0-0.2,0C59.6,9,58,14.1,56.3,19.2 M80.3,36
	c-4.2,0-8.4,0-12.6,0c0-0.3,0-0.7,0-1c0.5-0.1,1.1-0.1,1.6-0.3c1.1-0.3,1.7-1.2,1.4-2.4c-0.4-1.6-1-3.2-1.5-4.8
	c-0.4-1.1-0.7-2.3-1.1-3.4c-0.3-0.8-0.5-1.7-0.8-2.5c0-0.1-0.3-0.2-0.5-0.2c-1.6,0-3.2,0-4.8,0c-2,0-4.1,0-6.1,0
	c-0.3,0-0.5,0.1-0.6,0.4c-0.7,2.2-1.5,4.3-2.2,6.5c-0.4,1.2-0.7,2.4-1,3.6c-0.2,1-0.1,1.9,0.9,2.5c0.4,0.2,0.8,0.3,1.3,0.4
	c0.7,0.1,0.7,0.1,0.7,0.8c0,0.1,0,0.2,0,0.3c-3.1,0-6.1,0-9.2,0c0-0.3,0-0.7,0-1c0.5-0.1,1.1-0.3,1.6-0.5c1.5-0.6,2.3-1.7,2.9-3.1
	c0.7-2,1.4-4,2.1-6c0.7-2,1.3-3.9,2-5.9c0.5-1.6,1-3.2,1.6-4.7c0.6-1.8,1.2-3.5,1.8-5.3C58.4,7.8,59,5.9,59.6,4
	c0.4-1.2,0.8-2.5,1.3-3.7c0-0.1,0.2-0.3,0.3-0.3c1.2,0,2.5,0,3.7,0c0.7,2.1,1.4,4.1,2.1,6.1c0.8,2.4,1.6,4.9,2.4,7.3
	c0.8,2.5,1.7,5,2.5,7.5c0.9,2.8,1.9,5.7,2.9,8.5c0.4,1.1,0.8,2.2,1.3,3.3c0.6,1.4,1.7,2.2,3.3,2.2c0.1,0,0.1,0,0.2,0
	C80.5,35,80.5,35,80.3,36z"/>
<path class="st0" d="M25.7,46.8c0.3-0.2,0.5-0.4,0.8-0.6c0.4,0.4,0.8,0.7,1.2,1c1.3,0.8,2.7,0.8,4.1,0.1c1.8-0.8,2.7-2.3,3.3-4
	c0.5-1.4,0.6-2.9,0.6-4.3c0-10.8,0-21.5,0-32.3c0-1.1-0.1-2.2-0.4-3.2C35.2,2,34,1.1,32.5,1.1c-0.3,0-0.5,0-0.8,0c0-0.3,0-0.7,0-1
	c4.3,0,8.6,0,12.9,0c0,0.1,0,0.2,0,0.3c0,0.7,0,0.7-0.7,0.7c-1.7,0-2.9,1.1-3.1,2.8C40.7,5,40.6,6,40.6,7.1c0,10.9,0,21.8,0,32.7
	c0,1.4-0.1,2.8-0.5,4.2c-0.9,2.8-2.6,4.7-5.4,5.6c-1.4,0.5-2.8,0.6-4.3,0.4C28.3,49.6,26.8,48.5,25.7,46.8"/>
<path class="st0" d="M84,47.6h0.8v-2.3c0-1.1,0.4-1.8,1.5-1.8c0.7,0,1.1,0.5,1.1,1.3v2.8h0.8v-2.9c0-1.1-0.6-1.9-1.8-1.9
	c-0.8,0-1.4,0.4-1.6,0.9h0c0-0.3,0-0.5,0-0.8H84c0,0.3,0,0.7,0,1.1V47.6z M78.7,45.3c0-1,0.7-1.7,1.7-1.7s1.7,0.8,1.7,1.7
	c0,1-0.7,1.7-1.7,1.7S78.7,46.3,78.7,45.3z M77.9,45.3c0,1.5,1.1,2.5,2.5,2.5s2.5-1,2.5-2.5c0-1.5-1.1-2.5-2.5-2.5
	S77.9,43.8,77.9,45.3z M75.7,41.1c0,0.3,0.2,0.6,0.6,0.6c0.3,0,0.6-0.2,0.6-0.6c0-0.3-0.3-0.6-0.6-0.6C76,40.5,75.7,40.8,75.7,41.1z
	 M75.9,47.6h0.8v-4.7h-0.8V47.6z M75,42.9h-1.4v-1.3h-0.8v1.3h-1v0.7h1v2.6c0,1,0.2,1.6,1.3,1.6c0.3,0,0.6-0.1,0.9-0.2l0-0.7
	C74.8,47,74.5,47,74.3,47c-0.7,0-0.7-0.5-0.7-1.1v-2.3H75V42.9z M70.3,45.4v0.3c0,0.8-0.5,1.4-1.4,1.4c-0.6,0-1-0.2-1-0.8
	c0-0.6,0.6-0.9,1.6-0.9H70.3z M67.7,44.1c0.4-0.3,0.9-0.5,1.4-0.5c0.7,0,1.2,0.4,1.2,1v0.1H70c-1.2,0-3,0.1-3,1.6
	c0,0.9,0.8,1.4,1.7,1.4c0.7,0,1.2-0.3,1.5-0.8h0c0,0.2,0,0.5,0.1,0.7h0.8c0-0.2-0.1-0.5-0.1-0.8v-2c0-1.3-0.6-2-2-2
	c-0.7,0-1.4,0.2-1.9,0.7L67.7,44.1z M66.5,43.6c-0.5-0.5-1.1-0.7-1.8-0.7c-1.4,0-2.4,1-2.4,2.5c0,1.4,1,2.5,2.4,2.5
	c0.7,0,1.3-0.2,1.8-0.8l-0.6-0.6c-0.3,0.4-0.7,0.6-1.2,0.6c-1,0-1.6-0.8-1.6-1.7c0-1,0.5-1.7,1.6-1.7c0.5,0,0.9,0.2,1.2,0.6
	L66.5,43.6z M61.2,42.9h-0.8v2.3c0,1.1-0.4,1.8-1.5,1.8c-0.7,0-1.1-0.5-1.1-1.3v-2.8h-0.8v2.9c0,1.1,0.6,1.9,1.8,1.9
	c0.8,0,1.4-0.4,1.6-0.9h0c0,0.3,0,0.5,0,0.8h0.7c0-0.3,0-0.7,0-1.1V42.9z M55,45.3c0,1-0.7,1.7-1.7,1.7s-1.7-0.8-1.7-1.7
	c0-1,0.7-1.7,1.7-1.7S55,44.3,55,45.3z M55,47.6h0.8v-7.6H55v3.6h0c-0.4-0.5-1-0.8-1.7-0.8c-1.5,0-2.5,1-2.5,2.5
	c0,1.4,1,2.5,2.3,2.5c0.8,0,1.5-0.4,1.8-1h0V47.6z M45.3,47.6H50v-0.8h-3.8v-2.5h3.4v-0.8h-3.4v-2.2h3.6v-0.8h-4.5V47.6z"/>
</svg>
